<?xml version="1.0" standalone="no"?>
<!DOCTYPE svg PUBLIC "-//W3C//DTD SVG 20010904//EN"
 "http://www.w3.org/TR/2001/REC-SVG-20010904/DTD/svg10.dtd">
<svg version="1.0" xmlns="http://www.w3.org/2000/svg"
 width="800.000000pt" height="800.000000pt" viewBox="0 0 800.000000 800.000000"
 preserveAspectRatio="xMidYMid meet">
<metadata>
Created by potrace 1.14, written by Peter Selinger 2001-2017
</metadata>
<g transform="translate(0.000000,800.000000) scale(0.100000,-0.100000)"
fill="#000000" stroke="none">
<path d="M0 4000 l0 -4000 1414 0 1414 0 7 32 c3 18 15 69 25 113 10 44 22
109 25 145 8 91 14 139 21 180 13 77 55 231 94 338 40 114 76 297 65 333 -4
11 -12 19 -19 19 -17 0 -52 39 -61 68 -4 13 -18 27 -31 32 -14 6 -24 18 -24
29 0 11 -9 26 -21 34 -12 9 -26 38 -36 73 -8 33 -21 66 -28 74 -7 9 -12 35
-12 62 2 40 8 53 42 90 68 73 68 72 54 117 -11 37 -29 56 -29 30 0 -5 -4 -7
-10 -4 -15 9 -12 36 5 55 12 13 12 23 3 55 -14 46 -25 56 -54 49 -12 -3 -26 1
-34 10 -10 13 -16 14 -27 5 -10 -9 -17 -9 -25 -1 -12 12 -2 32 17 32 11 0 13
17 10 83 -5 101 -19 203 -34 240 -14 35 -14 142 -1 167 9 16 15 17 40 9 22 -8
36 -25 55 -65 14 -30 28 -54 31 -54 3 0 3 4 0 9 -3 5 1 11 8 14 16 7 70 -49
81 -82 14 -45 25 -19 19 44 -8 74 0 80 58 45 18 -11 44 -20 58 -20 14 0 34 -7
44 -15 13 -10 32 -13 58 -9 29 5 51 0 93 -20 65 -30 79 -32 130 -10 25 10 64
15 114 14 146 -3 280 5 293 18 6 6 29 12 50 12 41 0 60 -21 55 -61 -2 -21 1
-23 48 -20 53 3 93 20 137 57 15 12 44 28 63 34 31 10 43 9 89 -10 30 -12 63
-32 74 -44 11 -13 26 -26 33 -28 10 -3 11 -18 3 -71 -8 -51 -7 -67 2 -67 22 0
24 -29 3 -41 -27 -14 -20 -44 11 -44 21 0 26 -6 33 -45 5 -25 15 -52 22 -60
25 -28 35 -67 20 -80 -9 -8 -12 -23 -8 -47 5 -31 4 -35 -10 -30 -17 6 -24 -7
-9 -17 14 -9 1 -66 -15 -66 -8 0 -17 -9 -20 -20 -4 -15 -14 -20 -40 -20 -30 0
-34 -3 -28 -17 5 -10 8 -40 9 -68 l1 -50 -49 -5 -48 -5 46 -43 c40 -37 44 -45
34 -62 -9 -14 -9 -25 0 -44 14 -32 26 -33 52 -3 18 21 25 23 54 13 26 -8 33
-15 33 -35 -1 -15 1 -33 4 -41 3 -12 -8 -15 -63 -15 -73 0 -100 -13 -79 -39
21 -25 3 -38 -39 -31 -35 6 -40 4 -54 -23 -8 -16 -12 -39 -9 -50 4 -15 1 -22
-9 -22 -8 0 -20 -11 -26 -25 -10 -22 -15 -24 -64 -19 -29 3 -63 11 -76 17 -17
8 -25 8 -34 -1 -7 -7 -17 -12 -24 -12 -15 0 -25 91 -12 108 8 9 5 12 -11 12
-11 0 -45 12 -75 27 -54 26 -56 26 -76 8 -20 -18 -20 -18 -20 22 0 51 -23 75
-40 43 -11 -20 -9 -45 6 -84 10 -27 -22 -19 -44 11 -23 32 -52 26 -52 -12 0
-14 -4 -25 -10 -25 -9 0 -14 26 -11 61 1 9 -5 22 -13 28 -13 11 -18 7 -33 -25
-10 -20 -25 -42 -34 -47 -23 -14 -78 12 -85 40 -9 33 -21 28 -29 -10 -13 -64
-16 -69 -30 -57 -9 7 -12 22 -9 39 7 32 -16 56 -46 48 -11 -3 -18 -2 -15 2 2
4 -3 18 -11 30 -13 17 -22 21 -44 16 -23 -5 -32 -2 -45 19 -22 34 -34 33 -46
-4 -14 -39 -32 -27 -27 17 4 29 0 36 -19 44 -17 6 -33 4 -53 -6 -33 -17 -60
-19 -60 -5 0 6 -4 10 -10 10 -5 0 -10 -7 -10 -15 0 -8 -5 -15 -10 -15 -14 0
-2 47 22 85 22 36 22 45 4 45 -19 0 -62 -57 -71 -92 -6 -24 -3 -29 19 -38 27
-10 33 -29 15 -47 -18 -18 -6 -57 24 -71 24 -12 27 -19 27 -61 0 -52 2 -55 85
-121 28 -22 65 -42 85 -46 19 -3 42 -9 51 -14 9 -4 54 -12 100 -15 46 -4 92
-12 101 -16 9 -5 43 -13 75 -19 171 -28 229 -42 241 -58 7 -9 18 -17 25 -17 6
0 17 -10 23 -23 6 -12 20 -29 30 -37 11 -8 16 -15 12 -15 -5 0 1 -9 12 -20 15
-15 20 -33 20 -74 0 -34 5 -58 14 -65 8 -7 18 -27 22 -44 3 -17 10 -39 15 -49
5 -10 13 -27 18 -37 8 -16 -2 -33 -57 -98 -36 -43 -103 -116 -147 -163 -71
-75 -109 -115 -214 -233 l-25 -27 2222 0 2222 0 0 4000 0 4000 -4000 0 -4000
0 0 -4000z m4393 3351 c-5 -68 -9 -81 -22 -79 -13 3 -15 14 -12 63 2 34 10 68
20 81 9 12 17 21 18 20 2 -1 0 -39 -4 -85z m-533 10 c0 -6 -4 -13 -10 -16 -5
-3 -10 1 -10 9 0 9 5 16 10 16 6 0 10 -4 10 -9z m-1135 -50 c-4 -23 -11 -44
-16 -47 -6 -3 -8 5 -4 20 3 14 7 38 10 52 9 42 18 20 10 -25z m-129 -58 c0
-47 5 -87 12 -96 13 -16 6 -28 -12 -21 -7 3 -19 -2 -26 -11 -10 -12 -16 -13
-26 -4 -18 15 -18 43 2 81 9 16 15 49 13 72 -3 61 -1 68 19 64 14 -3 17 -15
18 -85z m944 45 c0 -13 -5 -30 -10 -38 -7 -11 -10 -5 -10 23 0 20 5 37 10 37
6 0 10 -10 10 -22z m-464 -145 c-10 -10 -19 5 -10 18 6 11 8 11 12 0 2 -7 1
-15 -2 -18z m-386 -58 c0 -16 -6 -25 -15 -25 -18 0 -18 5 -5 31 14 26 20 24
20 -6z m-74 -102 l16 -38 16 35 16 35 4 -35 c6 -57 -21 -129 -49 -130 -4 0 -7
20 -7 43 -1 24 -5 63 -11 85 -11 52 -6 53 15 5z m294 -28 c0 -8 -4 -15 -10
-15 -5 0 -10 7 -10 15 0 8 5 15 10 15 6 0 10 -7 10 -15z m-326 -68 c5 -21 3
-28 -6 -25 -7 3 -13 19 -13 36 -1 36 9 30 19 -11z m396 29 c0 -8 -4 -18 -10
-21 -5 -3 -10 3 -10 14 0 12 5 21 10 21 6 0 10 -6 10 -14z m1431 -33 c-15 -29
-59 -65 -72 -61 -15 5 47 78 67 78 11 0 12 -5 5 -17z m-514 -165 c-3 -8 -6 -5
-6 6 -1 11 2 17 5 13 3 -3 4 -12 1 -19z m653 -508 c0 -5 7 -10 15 -10 8 0 15
-6 15 -14 0 -19 124 -31 168 -15 25 9 36 8 48 -2 9 -7 25 -14 35 -16 11 -2 30
-10 42 -18 17 -11 31 -12 55 -6 23 7 32 6 32 -2 0 -8 4 -7 9 2 8 12 15 9 38
-15 30 -29 57 -70 59 -89 1 -5 2 -15 3 -22 0 -6 18 -17 39 -23 50 -17 99 -65
107 -106 3 -19 15 -40 25 -47 11 -6 20 -17 20 -22 0 -25 22 -31 78 -24 43 6
62 5 79 -7 12 -7 29 -14 37 -14 8 0 17 -13 21 -30 4 -16 13 -30 20 -30 17 0
35 -31 35 -61 0 -21 0 -21 -35 5 -43 33 -46 15 -5 -24 24 -23 29 -34 24 -54
-4 -19 -2 -28 10 -32 9 -3 16 -17 16 -30 0 -20 24 -44 45 -44 7 0 -1 116 -9
129 -4 5 -1 13 5 17 7 4 37 -21 74 -60 57 -61 85 -74 69 -32 -7 17 11 22 21 6
11 -18 33 -11 28 9 -6 23 14 38 30 22 6 -6 19 -11 28 -11 38 0 124 -149 99
-174 -6 -6 -12 -1 -18 14 l-9 24 -13 -23 c-16 -31 -5 -99 21 -127 11 -12 20
-36 21 -60 4 -113 -5 -331 -18 -416 -8 -54 -14 -112 -14 -130 0 -17 -6 -39
-14 -47 -8 -9 -17 -36 -21 -61 l-7 -46 71 0 c61 0 74 -3 96 -24 15 -14 33 -40
42 -58 15 -31 14 -34 -3 -47 -11 -8 -32 -17 -49 -21 -45 -10 -117 -49 -144
-78 -14 -15 -46 -40 -73 -57 -26 -17 -48 -33 -48 -35 0 -6 53 7 65 16 26 19
66 19 109 0 25 -10 46 -24 46 -30 0 -17 21 -11 52 15 16 14 34 25 39 25 12 0
12 -82 0 -112 -5 -13 -12 -36 -16 -51 -4 -22 -11 -27 -27 -25 -12 2 -23 -3
-25 -9 -3 -7 2 -13 10 -13 20 0 27 -31 17 -77 -4 -21 -11 -94 -14 -163 -7
-130 -26 -229 -76 -390 -45 -144 -113 -238 -214 -289 -40 -21 -50 -22 -90 -12
-62 15 -60 16 -81 -31 -17 -38 -20 -40 -23 -19 -2 12 -15 44 -28 69 -13 25
-24 55 -24 68 0 16 -7 24 -22 26 -29 4 -35 38 -12 73 13 20 16 39 11 90 -4 36
-11 74 -18 86 -6 13 -8 36 -4 58 4 20 9 90 11 156 2 66 10 145 18 175 9 30 16
78 16 106 0 27 4 54 9 60 5 5 11 34 15 65 7 63 2 69 -57 69 -29 0 -30 -1 -11
-15 19 -14 18 -14 -3 -15 -12 0 -26 7 -31 16 -5 9 -14 14 -21 10 -14 -9 -14
-33 0 -38 5 -2 11 -19 11 -38 2 -52 -11 -170 -19 -183 -5 -7 -9 -50 -9 -97 -2
-87 -10 -163 -22 -190 -3 -8 -6 -36 -7 -62 0 -26 -4 -47 -9 -47 -16 1 -24 -24
-16 -46 6 -15 4 -32 -6 -50 -8 -15 -12 -30 -10 -32 8 -8 27 8 21 17 -5 7 17
20 35 20 11 0 9 -41 -3 -57 -6 -9 -5 -18 2 -27 6 -7 11 -48 10 -97 0 -46 2
-98 6 -116 6 -26 3 -33 -14 -42 -12 -7 -21 -18 -21 -26 0 -29 24 -66 46 -71
13 -3 35 -22 50 -41 23 -30 25 -39 18 -81 -4 -26 -8 -72 -8 -102 -1 -48 -4
-55 -21 -55 -14 0 -20 -7 -21 -25 0 -14 -4 -34 -8 -45 -25 -65 -28 -79 -23
-110 5 -33 -5 -47 -18 -25 -12 20 -43 10 -49 -16 -6 -22 -11 -25 -34 -21 -15
2 -34 7 -42 10 -10 5 -20 -4 -31 -26 -9 -19 -25 -33 -38 -35 -18 -3 -22 -9
-18 -28 4 -23 2 -24 -40 -21 -31 3 -52 12 -72 31 -23 22 -34 26 -56 20 -28 -7
-28 -6 -22 30 8 47 -11 56 -61 30 -47 -25 -64 -81 -35 -117 19 -24 53 -25 53
-1 0 8 7 14 15 14 9 0 15 -9 15 -25 0 -14 -5 -25 -12 -25 -9 0 -9 -3 0 -12 14
-14 16 -58 4 -58 -28 0 -69 33 -81 65 -9 27 -18 35 -36 35 -13 0 -27 -5 -30
-10 -4 -6 -11 -8 -16 -4 -6 3 -19 -3 -30 -15 -21 -22 -25 -41 -8 -41 6 0 9
-10 7 -22 -2 -17 -11 -24 -30 -26 -20 -2 -28 -9 -28 -22 0 -33 -18 -31 -29 2
-14 40 -29 28 -39 -33 -6 -32 -12 -44 -25 -44 -9 0 -17 5 -17 10 0 6 6 10 13
10 6 0 12 6 11 13 -1 6 -2 22 -3 35 -1 12 -6 29 -11 37 -19 27 -40 -15 -33
-65 6 -47 -4 -60 -38 -50 -14 5 -18 12 -13 23 4 10 11 51 16 92 5 41 20 96 33
122 26 51 32 102 20 163 -13 68 -46 163 -61 176 -8 6 -14 20 -14 31 0 11 -13
26 -32 36 -18 9 -55 38 -82 65 -30 28 -59 47 -73 47 -14 0 -23 6 -23 15 0 8
-9 15 -20 15 -11 0 -20 7 -20 15 0 17 -36 38 -53 31 -7 -3 -3 -7 9 -11 12 -4
30 -22 40 -41 10 -19 26 -34 36 -34 9 0 20 -10 24 -22 3 -13 15 -31 25 -41 11
-10 17 -22 14 -28 -8 -12 -51 -12 -75 1 -16 8 -22 6 -35 -13 -9 -14 -13 -32
-8 -42 5 -15 3 -17 -12 -12 -23 10 -45 -9 -45 -39 0 -23 -13 -29 -49 -24 -16
2 -71 -49 -71 -66 0 -6 16 -24 35 -38 19 -15 35 -31 35 -36 0 -8 -179 -7 -330
2 -67 4 -110 -2 -110 -17 0 -24 -45 -18 -80 11 -29 25 -36 26 -102 21 -67 -6
-96 -15 -72 -24 6 -2 19 -10 29 -17 18 -13 18 -14 -2 -24 -11 -6 -49 -14 -85
-18 -63 -6 -66 -6 -116 31 -31 22 -68 39 -92 42 -22 3 -40 10 -40 14 0 5 -7 9
-15 9 -8 0 -15 5 -15 11 0 6 -9 8 -20 4 -12 -4 -27 -1 -35 5 -8 7 -15 9 -15 6
0 -4 -6 -4 -12 0 -16 10 -50 13 -62 6 -18 -10 -71 -10 -83 0 -7 6 -13 19 -13
30 0 16 5 19 28 13 21 -4 33 -1 47 15 25 27 38 25 32 -5 -4 -25 -4 -25 21 -9
19 12 26 13 32 4 6 -9 17 -6 42 14 42 31 52 33 38 6 -16 -30 -3 -43 37 -35 37
7 207 -11 234 -25 8 -4 38 -6 65 -3 27 2 74 6 104 9 30 3 69 12 87 22 30 15
33 15 52 -2 22 -20 51 -15 51 7 0 28 25 37 73 28 41 -7 47 -6 52 10 4 12 16
19 31 19 24 0 25 3 18 32 -11 51 -39 70 -93 62 -25 -4 -55 -10 -66 -14 -11 -4
-36 -2 -55 5 -19 7 -55 16 -79 18 -24 3 -51 13 -60 21 -8 9 -11 16 -5 16 6 0
22 9 35 21 13 12 35 30 48 40 26 21 23 36 -6 24 -10 -4 -45 -7 -78 -6 -86 3
-275 -66 -275 -100 0 -5 -7 -9 -15 -9 -8 0 -15 5 -15 10 0 6 -21 20 -46 30
-35 16 -50 17 -66 9 -14 -8 -23 -8 -31 0 -6 6 -16 7 -28 1 -14 -8 -19 -6 -24
11 -6 19 -8 18 -31 -13 -24 -32 -45 -46 -73 -47 -7 -1 -11 5 -8 13 4 9 -1 17
-12 21 -11 3 -21 15 -24 25 -4 17 -13 20 -62 19 -64 -2 -87 11 -67 39 7 9 21
36 32 60 11 23 24 42 30 42 5 0 10 9 10 19 0 11 4 22 10 26 5 3 14 20 19 38 5
18 23 70 40 116 44 123 33 130 -64 40 -35 -34 -63 -65 -60 -69 3 -4 -5 -15
-18 -23 -31 -21 -69 -58 -92 -91 -11 -16 -45 -56 -75 -88 -48 -53 -56 -68 -67
-125 -11 -55 -10 -72 4 -121 9 -31 17 -77 17 -101 1 -26 6 -46 14 -48 16 -6
15 -21 -2 -39 -21 -20 -24 -18 -37 26 -13 42 -23 50 -33 25 -10 -28 -25 -15
-40 34 -8 27 -22 63 -31 80 -29 56 -73 376 -75 536 0 55 -5 118 -10 140 -13
59 -22 575 -10 575 5 0 10 -11 10 -25 0 -18 7 -28 26 -35 42 -16 56 -13 44 9
-5 11 -10 30 -10 42 0 16 5 20 20 16 16 -4 22 2 30 32 10 36 50 71 84 71 9 0
27 -21 40 -47 43 -84 66 -103 123 -103 27 0 75 5 107 11 39 8 64 9 79 2 80
-37 117 -42 137 -18 7 8 21 15 31 15 10 0 24 10 30 23 7 12 16 25 21 28 8 5
-12 122 -30 170 -6 14 -22 33 -37 43 -14 9 -35 26 -46 37 -20 20 -44 25 -53
10 -6 -9 -38 -4 -123 22 -29 9 -53 14 -53 11 0 -2 -15 3 -32 13 -18 9 -51 20
-73 24 -22 4 -71 14 -110 23 -38 9 -99 16 -135 16 -74 1 -189 30 -203 51 -6
10 1 46 21 109 28 89 30 109 37 315 4 121 12 228 17 239 7 12 6 22 -1 29 -6 6
-11 24 -11 39 0 15 -4 28 -10 28 -5 0 -7 7 -4 15 4 8 1 22 -6 29 -9 11 -8 25
5 63 9 26 23 55 30 64 8 8 16 26 18 39 2 13 10 26 18 29 17 5 40 37 56 76 33
85 45 122 46 140 0 11 6 27 13 35 6 8 22 38 35 65 90 197 163 283 231 272 24
-3 48 4 87 24 64 34 75 36 68 9 -4 -16 -2 -18 13 -10 10 6 22 20 26 32 l7 23
8 -23 c7 -17 12 -20 26 -13 32 16 159 42 176 36 8 -4 13 -13 10 -21 -6 -16 13
-19 23 -3 3 6 16 8 28 5 26 -6 48 6 44 25 -2 10 8 14 37 14 32 0 40 -4 39 -17
-2 -23 17 -23 47 1 33 25 51 30 72 19 13 -7 24 -5 35 5 21 18 74 30 126 28 22
0 52 7 70 18 33 20 77 22 84 3 6 -20 47 -13 87 14 45 30 113 40 122 18 7 -20
23 -18 63 9 26 17 48 22 83 21 26 -1 61 3 77 9 35 13 48 4 29 -19 -12 -15 -11
-16 11 -9 14 4 40 12 59 16 18 4 38 12 44 18 7 7 14 6 21 -5 10 -12 16 -12 51
6 34 18 40 18 43 5 5 -22 14 -19 44 15 25 29 58 40 58 20 0 -18 18 -10 23 10
5 20 47 29 47 10z m470 -25 c21 -25 -2 -42 -36 -26 -21 9 -24 14 -14 26 16 19
34 19 50 0z m420 -365 c8 -5 11 -10 5 -10 -5 0 -17 5 -25 10 -8 5 -10 10 -5
10 6 0 17 -5 25 -10z m60 0 c8 -5 12 -12 9 -15 -8 -8 -39 5 -39 16 0 11 11 11
30 -1z m359 -66 c12 -15 26 -45 31 -68 6 -22 15 -49 20 -58 21 -38 5 -78 -31
-78 -10 0 -27 16 -39 35 -17 27 -20 43 -15 77 4 24 2 56 -4 71 -19 50 5 63 38
21z m-124 -20 c8 -20 15 -43 15 -50 0 -19 -36 -18 -43 0 -6 15 2 86 9 86 2 0
11 -16 19 -36z m-155 -3 c0 -5 10 -11 22 -14 12 -4 19 -9 15 -13 -4 -4 -18 -1
-32 6 -25 13 -33 30 -15 30 6 0 10 -4 10 -9z m-3260 -205 c0 -3 -4 -8 -10 -11
-5 -3 -10 -1 -10 4 0 6 5 11 10 11 6 0 10 -2 10 -4z m3130 -1477 c0 -6 -4 -7
-10 -4 -5 3 -10 11 -10 16 0 6 5 7 10 4 6 -3 10 -11 10 -16z m-50 -199 c0 -5
-4 -10 -10 -10 -5 0 -10 5 -10 10 0 6 5 10 10 10 6 0 10 -4 10 -10z m50 -721
c0 -6 -4 -7 -10 -4 -5 3 -10 11 -10 16 0 6 5 7 10 4 6 -3 10 -11 10 -16z m176
-297 c-2 -37 -35 -154 -64 -224 -16 -41 -37 -55 -46 -31 -8 20 2 53 16 53 7 0
9 19 4 55 -4 40 -2 63 9 85 8 16 15 38 15 48 0 11 7 25 15 32 8 7 15 22 15 33
0 19 1 19 19 3 13 -12 19 -29 17 -54z m-2146 -439 c0 -20 -24 -11 -28 10 -2
12 1 15 12 11 9 -3 16 -13 16 -21z m-960 -3 c0 -5 -2 -10 -4 -10 -3 0 -8 5
-11 10 -3 6 -1 10 4 10 6 0 11 -4 11 -10z m2740 -66 c0 -8 -4 -14 -9 -14 -11
0 -22 26 -14 34 9 9 23 -3 23 -20z m-776 -28 c-3 -9 -10 -16 -15 -16 -6 0 -5
9 1 21 13 24 24 20 14 -5z m479 -142 c11 -11 -5 -34 -24 -34 -12 0 -19 7 -19
20 0 19 28 28 43 14z m-283 -54 c0 -11 -7 -20 -15 -20 -15 0 -21 21 -8 33 12
13 23 7 23 -13z m-1865 -389 c-3 -12 -13 -21 -21 -21 -17 0 -18 14 -3 42 14
26 34 9 24 -21z m2015 -46 c0 -19 -20 -29 -32 -17 -15 15 -2 43 17 36 8 -3 15
-12 15 -19z m-320 -19 c0 -3 -4 -8 -10 -11 -5 -3 -10 -1 -10 4 0 6 5 11 10 11
6 0 10 -2 10 -4z m275 -61 c0 -11 3 -25 7 -31 12 -19 -28 -47 -57 -40 -31 8
-32 20 -2 33 l22 11 -27 11 c-34 13 -35 19 -5 31 35 14 62 8 62 -15z m-290 5
c4 -6 -10 -10 -34 -10 -23 0 -41 5 -41 10 0 6 15 10 34 10 19 0 38 -4 41 -10z
m233 -117 c4 -25 -16 -29 -68 -14 l-24 7 24 17 c33 23 64 18 68 -10z m-318
-39 c0 -8 -8 -14 -18 -14 -25 0 -34 11 -21 26 13 15 39 7 39 -12z m-1265 -143
c-3 -6 -11 -11 -17 -11 -6 0 -6 6 2 15 14 17 26 13 15 -4z m572 -167 c-10 -10
-37 16 -37 34 0 13 4 12 22 -5 12 -13 19 -25 15 -29z"/>
<path d="M5435 5730 c3 -5 8 -10 11 -10 2 0 4 5 4 10 0 6 -5 10 -11 10 -5 0
-7 -4 -4 -10z"/>
<path d="M5590 5446 c0 -28 12 -46 31 -46 24 0 26 45 3 54 -25 9 -34 7 -34 -8z"/>
<path d="M5487 5354 c-8 -8 3 -34 14 -34 11 0 12 27 0 34 -4 3 -11 3 -14 0z"/>
<path d="M5163 4887 c5 -15 37 -22 37 -9 0 5 -9 12 -21 15 -13 3 -19 1 -16 -6z"/>
<path d="M5196 4772 c-3 -6 -1 -14 5 -17 15 -10 25 3 12 16 -7 7 -13 7 -17 1z"/>
<path d="M5140 4727 c0 -15 4 -27 10 -27 5 0 9 9 7 20 -5 31 -17 36 -17 7z"/>
<path d="M5174 4698 c3 -13 6 -26 6 -30 0 -5 11 -8 25 -8 14 0 25 -6 25 -12 0
-9 4 -8 10 2 15 23 12 30 -12 27 -15 -1 -26 5 -33 21 -5 12 -14 22 -19 22 -4
0 -6 -10 -2 -22z"/>
<path d="M4265 4466 c-14 -17 -25 -25 -25 -18 0 9 -6 9 -23 -3 -19 -12 -34
-13 -73 -6 -41 8 -60 6 -109 -11 -33 -11 -93 -24 -134 -29 -50 -5 -94 -19
-135 -39 -97 -50 -108 -57 -144 -96 -30 -33 -35 -36 -57 -24 -29 16 -55 7 -55
-19 0 -27 -8 -30 -71 -32 -30 -1 -60 -6 -66 -12 -19 -14 -16 -63 7 -108 33
-63 54 -79 106 -79 39 0 51 -5 85 -39 26 -25 56 -43 87 -51 26 -6 56 -16 67
-21 31 -13 78 -6 96 15 17 20 39 15 39 -10 0 -8 4 -14 8 -14 15 0 54 48 48 58
-7 12 13 72 25 72 5 0 23 12 39 26 39 36 97 70 105 62 2 -2 7 -26 10 -53 4
-28 13 -56 20 -64 12 -12 13 -11 8 7 -6 25 2 28 23 8 18 -19 18 -36 -1 -36
-24 0 -17 -26 12 -45 17 -12 45 -17 80 -17 45 0 61 6 98 34 25 18 50 45 57 61
7 15 20 27 29 27 24 0 80 -60 74 -80 -3 -9 3 -28 14 -41 l19 -24 26 25 c24 21
30 23 57 13 22 -9 37 -9 54 -1 l24 11 -21 17 c-17 14 -19 20 -9 38 10 18 8 23
-11 33 -13 7 -43 29 -68 49 -25 21 -61 46 -80 55 -19 10 -42 23 -50 30 -36 30
-214 48 -338 34 -57 -6 -106 -8 -109 -5 -4 3 0 6 8 6 8 0 23 11 33 25 10 14
25 25 32 25 8 0 14 4 14 9 0 8 26 21 50 26 74 15 167 42 175 51 16 18 39 22
50 8 6 -8 37 -16 70 -18 33 -2 61 -5 62 -5 1 -1 9 -14 17 -30 14 -26 14 -30 1
-41 -13 -11 -8 -19 32 -56 26 -24 50 -44 55 -44 4 0 8 -6 8 -14 0 -7 6 -19 14
-25 11 -9 11 -5 2 24 -6 19 -14 35 -18 35 -15 0 -8 51 7 56 20 8 8 26 -13 20
-10 -3 -24 -1 -32 4 -13 9 -13 11 0 20 18 12 96 17 130 9 9 -3 16 5 18 20 2
14 0 21 -7 17 -11 -7 -51 14 -51 28 0 4 9 6 20 3 15 -4 20 0 20 14 0 11 7 19
18 19 14 1 12 4 -8 20 -14 11 -30 24 -37 30 -7 5 -18 7 -26 4 -9 -3 -16 3 -20
16 -4 15 -13 21 -29 20 -33 -3 -68 10 -68 26 0 22 -20 27 -132 29 l-108 3 -25
-32z m265 -101 c0 -8 -4 -15 -9 -15 -13 0 -22 16 -14 24 11 11 23 6 23 -9z
m84 -10 c-4 -8 -8 -15 -10 -15 -2 0 -4 7 -4 15 0 8 4 15 10 15 5 0 7 -7 4 -15z
m-44 -5 c-20 -13 -33 -13 -25 0 3 6 14 10 23 10 15 0 15 -2 2 -10z m-404 -276
c-5 -14 -9 -15 -19 -5 -9 9 -9 14 3 21 18 11 24 6 16 -16z m124 6 c0 -11 -7
-20 -15 -20 -15 0 -21 21 -8 33 12 13 23 7 23 -13z"/>
<path d="M4732 4279 c2 -7 10 -15 17 -17 8 -3 12 1 9 9 -2 7 -10 15 -17 17 -8
3 -12 -1 -9 -9z"/>
<path d="M4693 4208 c-10 -3 -27 -9 -38 -13 -18 -5 -15 -10 23 -46 49 -45 77
-52 66 -17 -4 13 -14 28 -23 35 -14 11 -14 14 -1 23 8 5 23 10 33 10 9 0 17 4
17 9 0 9 -51 9 -77 -1z"/>
<path d="M4720 4091 c0 -5 7 -12 16 -15 14 -5 15 -4 4 9 -14 17 -20 19 -20 6z"/>
<path d="M5620 4020 c0 -5 -6 -10 -14 -10 -14 0 -27 -63 -17 -78 4 -5 23 -20
43 -34 21 -13 52 -45 70 -69 37 -52 57 -68 82 -69 12 0 16 5 13 14 -3 8 -11
34 -17 58 -19 68 -71 159 -105 179 -33 21 -55 24 -55 9z"/>
<path d="M4095 3792 c-20 -20 26 -31 54 -13 9 6 4 10 -18 13 -17 3 -33 2 -36
0z"/>
<path d="M3865 3078 c4 -10 13 -18 20 -18 6 0 20 -9 30 -20 18 -20 75 -28 75
-11 0 11 -63 41 -87 41 -10 0 -25 6 -32 13 -10 10 -11 9 -6 -5z"/>
<path d="M3933 2683 c-7 -3 -13 -11 -13 -19 0 -9 4 -13 9 -9 5 3 12 1 16 -5 3
-5 1 -10 -6 -10 -9 0 -9 -3 0 -14 7 -8 9 -25 5 -40 -5 -22 -3 -26 17 -26 30 0
74 27 116 70 46 47 23 68 -40 35 -28 -14 -50 -12 -77 10 -8 7 -21 10 -27 8z"/>
<path d="M5008 2534 c-12 -12 11 -43 52 -69 52 -33 80 -33 80 -1 0 25 -25 43
-35 26 -11 -18 -35 -10 -63 21 -15 17 -30 27 -34 23z"/>
<path d="M5226 2511 c-4 -5 -2 -12 3 -15 5 -4 12 -2 15 3 4 5 2 12 -3 15 -5 4
-12 2 -15 -3z"/>
<path d="M4701 2353 c0 -5 4 -17 9 -28 8 -18 9 -17 9 8 1 15 -3 27 -9 27 -5 0
-10 -3 -9 -7z"/>
<path d="M4660 2281 c0 -6 4 -13 10 -16 6 -3 7 1 4 9 -7 18 -14 21 -14 7z"/>
<path d="M2888 2330 c-7 -24 -3 -38 8 -28 3 4 4 17 2 30 l-3 23 -7 -25z"/>
<path d="M3185 2160 c3 -5 8 -10 11 -10 2 0 4 5 4 10 0 6 -5 10 -11 10 -5 0
-7 -4 -4 -10z"/>
<path d="M3021 1858 c7 -13 18 -27 25 -31 8 -4 14 -16 14 -25 0 -9 20 -31 43
-48 85 -61 173 -90 312 -99 65 -5 77 -3 170 37 96 40 147 78 160 117 4 15 -2
20 -36 29 -23 6 -51 7 -63 2 -73 -28 -121 -35 -251 -35 -77 0 -156 3 -175 7
-71 14 -110 26 -153 47 -55 27 -61 26 -46 -1z"/>
<path d="M4387 1844 c-9 -10 4 -34 19 -34 8 0 14 9 14 20 0 19 -19 27 -33 14z"/>
<path d="M2911 1804 c0 -11 3 -14 6 -6 3 7 2 16 -1 19 -3 4 -6 -2 -5 -13z"/>
<path d="M3938 1293 c-21 -5 -23 -24 -6 -41 21 -21 38 -13 38 18 0 17 -3 29
-7 29 -5 -1 -16 -3 -25 -6z"/>
<path d="M4057 1223 c-13 -12 -7 -23 13 -23 11 0 20 7 20 15 0 15 -21 21 -33
8z"/>
</g>
</svg>
